<svg width="39" height="32" viewBox="0 0 39 32" fill="none" xmlns="http://www.w3.org/2000/svg">
<path d="M38.0625 16.0221C38.0625 24.5134 24.1789 31.3971 15.6875 31.3971C7.19612 31.3971 0.3125 32.0134 0.3125 23.5221C0.3125 15.0307 6.44612 0.647064 14.9375 0.647064C23.4289 0.647064 38.0625 7.53069 38.0625 16.0221Z" fill="#459AFF"/>
<path d="M19.7969 23.407H17.3359V17.0886H10.9785V23.407H8.50781V9.18822H10.9785V15.1062H17.3359V9.18822H19.7969V23.407Z" fill="white"/>
<path d="M22.8574 17.9285H20.1035V23.407H17.6328V9.18822H22.6328C24.2734 9.18822 25.5397 9.55606 26.4316 10.2917C27.3236 11.0274 27.7695 12.0919 27.7695 13.4851C27.7695 14.4356 27.5384 15.2331 27.0762 15.8777C26.6204 16.5157 25.9824 17.0072 25.1621 17.3523L28.3555 23.28V23.407H25.709L22.8574 17.9285ZM20.1035 15.946H22.6426C23.4759 15.946 24.127 15.7377 24.5957 15.321C25.0645 14.8979 25.2988 14.3217 25.2988 13.5925C25.2988 12.8308 25.0807 12.2416 24.6445 11.8249C24.2148 11.4083 23.5703 11.1934 22.7109 11.1804H20.1035V15.946Z" fill="white"/>
</svg>
