<svg width="22" height="22" viewBox="0 0 22 22" fill="none" xmlns="http://www.w3.org/2000/svg">
<g clip-path="url(#clip0)">
<path d="M19.5549 20.1117C19.3835 20.1117 19.2263 20.0015 19.1688 19.8398C19.1122 19.6812 19.16 19.4978 19.2893 19.389C19.4245 19.2752 19.6208 19.261 19.7712 19.3536C19.9108 19.4396 19.9858 19.607 19.9593 19.7687C19.9273 19.9642 19.7526 20.1117 19.5549 20.1117V20.1117Z" fill="black"/>
<path d="M11.2808 17.7695C11.0543 17.7695 10.8707 17.5859 10.8707 17.3594V14.2821C10.8707 14.0555 11.0543 13.8719 11.2808 13.8719C11.5074 13.8719 11.691 14.0555 11.691 14.2821V17.3594C11.691 17.5859 11.5074 17.7695 11.2808 17.7695V17.7695Z" fill="black"/>
<path d="M21.3707 12.523H15.4639V11.4292C15.4639 11.2027 15.2803 11.0191 15.0538 11.0191H7.50787C7.28132 11.0191 7.09771 11.2027 7.09771 11.4292V13.6152H1.19098C0.964432 13.6152 0.780823 13.7988 0.780823 14.0254V19.7017C0.780823 19.9283 0.964432 20.1119 1.19098 20.1119H17.7073C17.9338 20.1119 18.1175 19.9283 18.1175 19.7017C18.1175 19.4752 17.9338 19.2916 17.7073 19.2916H15.4639V13.3433H20.9605V19.7017C20.9605 19.9283 21.1441 20.1119 21.3707 20.1119C21.5972 20.1119 21.7808 19.9283 21.7808 19.7017V12.9332C21.7808 12.7066 21.5972 12.523 21.3707 12.523V12.523ZM1.60114 14.4355H7.09771V19.2916H1.60114V14.4355ZM7.91802 11.8394H14.6436V19.2914H7.91802V11.8394Z" fill="black"/>
<path d="M5.2831 11.4854C5.19514 11.4854 5.10654 11.4681 5.02194 11.433L4.34951 11.1544L3.67692 11.433C3.4571 11.5241 3.21068 11.495 3.0181 11.3551C2.82536 11.2151 2.72154 10.9898 2.74029 10.7525L2.79764 10.0268L2.32468 9.47321C2.16991 9.29216 2.12153 9.04895 2.19507 8.82256C2.26877 8.59602 2.45077 8.42763 2.68245 8.37219L3.39029 8.20236L3.77064 7.58152C3.89497 7.37852 4.11143 7.2574 4.34951 7.2574C4.58759 7.2574 4.80405 7.37852 4.92837 7.58152L5.30857 8.20236L6.01657 8.37219C6.24808 8.42763 6.43025 8.59602 6.50379 8.82256C6.57733 9.04895 6.52894 9.29216 6.37434 9.47321L5.90153 10.0268L5.95873 10.7525C5.97748 10.9898 5.87366 11.2151 5.68091 11.3551C5.56235 11.4412 5.42345 11.4854 5.2831 11.4854ZM3.09837 9.11592L3.5316 9.62317C3.60226 9.70584 3.63718 9.81335 3.62869 9.92182L3.57614 10.5867L4.19234 10.3313C4.29295 10.2897 4.40591 10.2897 4.50636 10.3313L5.12256 10.5867L5.07017 9.92182C5.06168 9.81335 5.0966 9.70584 5.16726 9.62317L5.60049 9.11592L4.95193 8.96035C4.84602 8.93504 4.7547 8.86855 4.69782 8.77578L4.34935 8.20701L4.00104 8.77578C3.94416 8.86855 3.85268 8.93504 3.74693 8.96035L3.09837 9.11592ZM5.82511 9.16992H5.82543H5.82511Z" fill="black"/>
<path d="M17.2787 11.4854C17.1382 11.4854 16.9993 11.4412 16.8807 11.3551C16.6882 11.2151 16.5843 10.9898 16.6031 10.7525L16.6603 10.0268L16.1875 9.47337C16.0327 9.29216 15.9843 9.04895 16.058 8.82256C16.1316 8.59602 16.3137 8.42763 16.5452 8.37219L17.2531 8.20236L17.6334 7.58152C17.7578 7.37852 17.9742 7.2574 18.2122 7.2574C18.4504 7.25724 18.6667 7.37852 18.7912 7.58152V7.58168L19.1715 8.20236L19.8794 8.37219C20.1109 8.42779 20.2931 8.59618 20.3666 8.82256C20.4403 9.04911 20.3917 9.29232 20.2371 9.47337L19.7643 10.0268L19.8215 10.7525C19.8403 10.99 19.7365 11.2152 19.5439 11.3551C19.3511 11.495 19.1049 11.5241 18.8849 11.433L18.2123 11.1544L17.5399 11.433C17.4551 11.4681 17.3665 11.4854 17.2787 11.4854ZM18.2122 10.3001C18.2657 10.3001 18.319 10.3105 18.3692 10.3313L18.9855 10.5867L18.933 9.92181C18.9245 9.81335 18.9594 9.70584 19.0301 9.62317L19.4633 9.11592L18.8147 8.96035C18.7088 8.93504 18.6175 8.86855 18.5606 8.77578L18.2122 8.20685L17.8638 8.77578C17.807 8.86855 17.7156 8.93504 17.6097 8.96035L16.961 9.11592L17.3944 9.62301C17.4651 9.70584 17.5 9.81319 17.4915 9.92181L17.4389 10.5867L18.0551 10.3313C18.1054 10.3105 18.1588 10.3001 18.2122 10.3001V10.3001Z" fill="black"/>
<path d="M9.64516 9.35988C9.46283 9.35988 9.28259 9.30252 9.12878 9.19085C8.87884 9.00916 8.74409 8.71677 8.76829 8.40867L8.87868 7.00933L7.96688 5.94212C7.76613 5.70708 7.70332 5.39146 7.79881 5.09746C7.8943 4.80362 8.13062 4.58508 8.43119 4.51299L9.79624 4.1855L10.5294 2.98852C10.6909 2.72496 10.9718 2.56763 11.2808 2.56763C11.5897 2.56763 11.8707 2.72496 12.0321 2.98852L12.7652 4.1855L14.1303 4.51299C14.4308 4.58508 14.6673 4.80362 14.7628 5.09746C14.8583 5.39146 14.7953 5.70708 14.5946 5.94212L13.6828 7.00933L13.7932 8.40867C13.8175 8.71677 13.6828 9.00916 13.4327 9.19069C13.1828 9.37238 12.863 9.41019 12.5775 9.29195L11.2808 8.75458L9.98402 9.29195C9.87411 9.33745 9.75923 9.35988 9.64516 9.35988V9.35988ZM11.2808 3.38794C11.2468 3.38794 11.2334 3.40973 11.2289 3.41694L10.407 4.75892C10.3501 4.85168 10.2588 4.91817 10.1529 4.94349L8.62265 5.31071C8.61432 5.31263 8.58949 5.31856 8.57891 5.35092C8.5685 5.38329 8.585 5.40283 8.59061 5.40924L9.61279 6.60558C9.68361 6.68842 9.71838 6.79592 9.70988 6.90439L9.58604 8.47324C9.5854 8.48157 9.58347 8.5072 9.61103 8.52723C9.63859 8.54726 9.66214 8.53732 9.66999 8.53412L11.1238 7.93154C11.2244 7.88988 11.3372 7.88988 11.4378 7.93154L12.8916 8.53412C12.8995 8.53732 12.923 8.54726 12.9506 8.52723C12.9782 8.5072 12.9762 8.48157 12.9754 8.47324L12.8517 6.90439C12.8431 6.79592 12.878 6.68842 12.9487 6.60558L13.971 5.40924C13.9765 5.40283 13.9931 5.38329 13.9826 5.35092C13.9721 5.31856 13.9472 5.31263 13.939 5.31071L12.4086 4.94349C12.3028 4.91817 12.2114 4.85168 12.1546 4.75892L11.3326 3.41694C11.3282 3.40973 11.3148 3.38794 11.2808 3.38794V3.38794Z" fill="black"/>
</g>
<defs>
<clipPath id="clip0">
<rect x="0.780823" y="0.844971" width="21" height="21" fill="white"/>
</clipPath>
</defs>
</svg>
