<svg width="22" height="22" viewBox="0 0 22 22" fill="none" xmlns="http://www.w3.org/2000/svg">
<g clip-path="url(#clip0)">
<path d="M10.6222 11.8653C10.3957 11.8653 10.212 12.0489 10.212 12.2754V12.2789C10.212 12.5054 10.3957 12.6873 10.6222 12.6873C10.8487 12.6873 11.0323 12.5019 11.0323 12.2754C11.0323 12.0489 10.8487 11.8653 10.6222 11.8653Z" fill="black"/>
<path d="M8.53061 11.8653C8.30412 11.8653 8.12045 12.0489 8.12045 12.2754V12.2789C8.12045 12.5054 8.30412 12.6873 8.53061 12.6873C8.7571 12.6873 8.94077 12.5019 8.94077 12.2754C8.94077 12.0489 8.75714 11.8653 8.53061 11.8653Z" fill="black"/>
<path d="M6.4379 11.8653C6.21141 11.8653 6.02774 12.0489 6.02774 12.2754V12.2789C6.02774 12.5054 6.21141 12.6873 6.4379 12.6873C6.66439 12.6873 6.84805 12.5019 6.84805 12.2754C6.84805 12.0489 6.66439 11.8653 6.4379 11.8653Z" fill="black"/>
<path d="M4.78235 3.39081C4.01831 3.39081 3.39676 4.01228 3.39676 4.77619C3.39676 5.54077 4.01831 6.16277 4.78235 6.16277C5.54573 6.16277 6.16679 5.54077 6.16679 4.77619C6.16675 4.01228 5.54573 3.39081 4.78235 3.39081V3.39081ZM4.78235 5.34246C4.47063 5.34246 4.21707 5.08845 4.21707 4.77619C4.21707 4.4646 4.47067 4.21112 4.78235 4.21112C5.09341 4.21112 5.34648 4.46464 5.34648 4.77619C5.34644 5.08845 5.09341 5.34246 4.78235 5.34246Z" fill="black"/>
<path d="M8.6806 3.39081C7.91722 3.39081 7.29616 4.01228 7.29616 4.77619C7.29616 5.54077 7.91722 6.16277 8.6806 6.16277C9.44398 6.16277 10.065 5.54077 10.065 4.77619C10.065 4.01228 9.44402 3.39081 8.6806 3.39081V3.39081ZM8.6806 5.34246C8.36954 5.34246 8.11647 5.08845 8.11647 4.77619C8.11647 4.4646 8.36954 4.21112 8.6806 4.21112C8.99166 4.21112 9.24473 4.46464 9.24473 4.77619C9.24473 5.08845 8.99166 5.34246 8.6806 5.34246Z" fill="black"/>
<path d="M17.7793 3.39081H13.3416C12.5782 3.39081 11.9571 4.01228 11.9571 4.77619C11.9571 5.54077 12.5782 6.16277 13.3416 6.16277H17.7793C18.5427 6.16277 19.1637 5.54077 19.1637 4.77619C19.1637 4.01228 18.5427 3.39081 17.7793 3.39081V3.39081ZM17.7793 5.34246H13.3416C13.0305 5.34246 12.7774 5.08845 12.7774 4.77619C12.7774 4.4646 13.0305 4.21112 13.3416 4.21112H17.7793C18.0904 4.21112 18.3434 4.46464 18.3434 4.77619C18.3434 5.08845 18.0904 5.34246 17.7793 5.34246V5.34246Z" fill="black"/>
<path d="M19.9592 1.62183H2.60241C1.59798 1.62183 0.780823 2.4396 0.780823 3.44481V13.1553C0.780823 13.3817 0.964491 13.5654 1.19098 13.5654C1.41747 13.5654 1.60114 13.3817 1.60114 13.1553V7.93163H20.9605V18.7891C20.9605 19.3419 20.5113 19.7917 19.9592 19.7917H2.60241C2.0503 19.7917 1.60114 19.3419 1.60114 18.7891V16.8421C1.60114 16.6156 1.41747 16.432 1.19098 16.432C0.964491 16.432 0.780823 16.6156 0.780823 16.8421V18.7891C0.780823 19.7943 1.59798 20.6121 2.60241 20.6121H19.9592C20.9637 20.6121 21.7808 19.7943 21.7808 18.7891V3.44481C21.7808 2.4396 20.9637 1.62183 19.9592 1.62183V1.62183ZM20.9605 7.11132H1.60114V3.44481C1.60114 2.89196 2.0503 2.44214 2.60241 2.44214H19.9592C20.5113 2.44214 20.9605 2.89196 20.9605 3.44481V7.11132Z" fill="black"/>
<path d="M14.2973 14.646C14.5238 14.646 14.7074 14.4606 14.7074 14.2341C14.7074 14.0076 14.5238 13.8239 14.2973 13.8239C14.0708 13.8239 13.8871 14.0076 13.8871 14.2341V14.2376C13.8871 14.4641 14.0707 14.646 14.2973 14.646Z" fill="black"/>
<path d="M16.3888 14.646C16.6153 14.646 16.799 14.4606 16.799 14.2341C16.799 14.0076 16.6153 13.8239 16.3888 13.8239C16.1623 13.8239 15.9787 14.0076 15.9787 14.2341V14.2376C15.9787 14.4641 16.1623 14.646 16.3888 14.646Z" fill="black"/>
<path d="M12.2382 9.27124H4.82184C4.37772 9.27124 4.01637 9.63271 4.01637 10.0771V14.6565C4.01637 15.1008 4.37772 15.4623 4.82184 15.4623H5.6214L6.09406 16.7346C6.14029 16.8591 6.24385 16.9535 6.37206 16.9879C6.40717 16.9974 6.44298 17.002 6.4785 17.002C6.57271 17.002 6.66524 16.9695 6.73956 16.9082L8.49192 15.4623H9.78301V16.6151C9.78301 17.0595 10.1444 17.4209 10.5885 17.4209H14.3347L16.087 18.8678C16.1613 18.9292 16.2539 18.9617 16.3482 18.9617C16.3837 18.9617 16.4194 18.9571 16.4544 18.9477C16.5827 18.9133 16.6863 18.8189 16.7325 18.6945L17.2063 17.4209H18.0049C18.4496 17.4209 18.8115 17.0594 18.8115 16.615V12.0357C18.8115 11.5913 18.4496 11.2298 18.0049 11.2298H13.0449V10.0771C13.0449 9.63271 12.683 9.27124 12.2382 9.27124V9.27124ZM8.34459 14.642C8.24935 14.642 8.15702 14.6752 8.08356 14.7358L6.66229 15.9086L6.29106 14.9094C6.23134 14.7487 6.07802 14.642 5.90658 14.642H4.83673V10.0916H12.2245V11.617C12.2241 11.6247 12.2234 11.6322 12.2234 11.64C12.2234 11.6478 12.2241 11.6554 12.2245 11.663V14.6421H8.34459V14.642ZM17.9911 12.0502V16.6007H16.9213C16.7499 16.6007 16.5966 16.7072 16.5369 16.8678L16.1647 17.8683L14.7433 16.6946C14.6698 16.6339 14.5774 16.6007 14.4821 16.6007H10.6034V15.4624H12.2382C12.683 15.4624 13.0449 15.1009 13.0449 14.6566V12.0502H17.9911V12.0502Z" fill="black"/>
<path d="M1.19098 15.4089C1.41747 15.4089 1.60114 15.2252 1.60114 14.9987V14.9964C1.60114 14.7699 1.41747 14.5874 1.19098 14.5874C0.964491 14.5874 0.780823 14.7722 0.780823 14.9987C0.780823 15.2252 0.964491 15.4089 1.19098 15.4089Z" fill="black"/>
</g>
<defs>
<clipPath id="clip0">
<rect x="0.780823" y="0.616943" width="21" height="21" fill="white"/>
</clipPath>
</defs>
</svg>
