<svg width="24" height="24" viewBox="0 0 24 24" fill="none" xmlns="http://www.w3.org/2000/svg">
<g clip-path="url(#clip0)">
<path d="M11.0651 10.1954H5.27088C4.44086 10.1954 3.76564 10.8706 3.76564 11.7006V15.698C3.76564 16.528 4.44086 17.2032 5.27088 17.2032H11.0651C11.8951 17.2032 12.5703 16.528 12.5703 15.698V11.7006C12.5703 10.8706 11.8951 10.1954 11.0651 10.1954V10.1954ZM11.6719 15.698C11.6719 16.0325 11.3997 16.3048 11.0651 16.3048H5.27088C4.9363 16.3048 4.66408 16.0325 4.66408 15.698V11.7006C4.66408 11.3661 4.9363 11.0938 5.27088 11.0938H11.0651C11.3997 11.0938 11.6719 11.3661 11.6719 11.7006V15.698Z" fill="black"/>
<path d="M8.9891 13.3102L7.79607 12.6214C7.65708 12.5411 7.48584 12.5411 7.34685 12.6214C7.20786 12.7016 7.12224 12.85 7.12224 13.0104V14.388C7.12224 14.5485 7.20786 14.6968 7.34685 14.777C7.41634 14.8172 7.49388 14.8372 7.57146 14.8372C7.64904 14.8372 7.72657 14.8172 7.79607 14.777L8.9891 14.0882C9.12809 14.008 9.21371 13.8597 9.21371 13.6992C9.21371 13.5388 9.12809 13.3904 8.9891 13.3102V13.3102Z" fill="black"/>
<path d="M22.9151 4.72074L17.3053 1.80082C17.1753 1.73316 17.0205 1.73316 16.8905 1.80082L11.2807 4.72074C11.1321 4.79809 11.0388 4.95168 11.0388 5.1192C11.0388 5.28671 11.1321 5.4403 11.2807 5.51765L13.4407 6.64196V7.5899H4.4245C2.76491 7.5899 1.41473 8.94007 1.41473 10.5997V18.9102H0.60614C0.358082 18.9102 0.156921 19.1114 0.156921 19.3594C0.156921 20.9943 1.48692 22.3243 3.12177 22.3243H17.7663C19.4011 22.3243 20.7311 20.9943 20.7311 19.3594C20.7311 19.1114 20.53 18.9102 20.2819 18.9102H19.4733V10.5997C19.4733 10.5367 19.4706 10.4738 19.4667 10.4109L20.4815 9.97992C20.6474 9.90948 20.7551 9.74669 20.7551 9.56646V6.64196L22.2585 5.85942V8.60877C22.2585 8.85683 22.4596 9.05799 22.7077 9.05799C22.9558 9.05799 23.1569 8.85683 23.1569 8.60877V5.1192C23.1569 4.95164 23.0637 4.79805 22.9151 4.72074V4.72074ZM18.5749 18.9102H12.4655C12.2175 18.9102 12.0163 19.1114 12.0163 19.3594C12.0163 19.6075 12.2175 19.8087 12.4655 19.8087H19.7835C19.5778 20.7327 18.7514 21.4258 17.7663 21.4258H3.12177C2.13658 21.4258 1.31025 20.7327 1.10455 19.8087H8.42255C8.6706 19.8087 8.87177 19.6075 8.87177 19.3594C8.87177 19.1114 8.6706 18.9102 8.42255 18.9102H2.31317V10.5997C2.31317 9.43547 3.2603 8.48834 4.4245 8.48834H13.4407V9.56646C13.4407 9.74669 13.5484 9.90948 13.7143 9.97992L16.9223 11.3425C16.9784 11.3663 17.0382 11.3783 17.0979 11.3783C17.1577 11.3783 17.2174 11.3663 17.2735 11.3425L18.5749 10.7898V18.9102ZM19.8566 9.26921L17.0979 10.441L14.3391 9.26921V7.10959L16.8905 8.43757C16.9555 8.4714 17.0267 8.48834 17.0979 8.48834C17.1691 8.48834 17.2403 8.4714 17.3053 8.43757L19.8566 7.10959V9.26921ZM17.0979 7.53267L12.461 5.1192L17.0979 2.70568L21.7347 5.1192L17.0979 7.53267Z" fill="black"/>
<path d="M16.7803 4.8016C16.6967 4.88516 16.6486 5.00106 16.6486 5.1192C16.6486 5.23735 16.6967 5.35324 16.7803 5.43675C16.8638 5.52031 16.9797 5.56842 17.0979 5.56842C17.216 5.56842 17.3319 5.52035 17.4154 5.43675C17.499 5.35324 17.5471 5.23735 17.5471 5.1192C17.5471 5.00106 17.499 4.88516 17.4154 4.8016C17.3319 4.71805 17.2164 4.66998 17.0979 4.66998C16.9797 4.67003 16.8638 4.71805 16.7803 4.8016Z" fill="black"/>
<path d="M16.8529 16.3048H14.3972C14.1491 16.3048 13.9479 16.5059 13.9479 16.754C13.9479 17.0021 14.1491 17.2032 14.3972 17.2032H16.8529C17.101 17.2032 17.3021 17.0021 17.3021 16.754C17.3021 16.5059 17.101 16.3048 16.8529 16.3048V16.3048Z" fill="black"/>
<path d="M16.8529 14.1485H14.3972C14.1491 14.1485 13.9479 14.3497 13.9479 14.5978C13.9479 14.8458 14.1491 15.047 14.3972 15.047H16.8529C17.101 15.047 17.3021 14.8458 17.3021 14.5978C17.3021 14.3497 17.101 14.1485 16.8529 14.1485V14.1485Z" fill="black"/>
<path d="M10.444 18.9102C10.3259 18.9102 10.21 18.9583 10.1264 19.0419C10.0429 19.1255 9.99481 19.2408 9.99481 19.3595C9.99481 19.4776 10.0428 19.5935 10.1264 19.677C10.21 19.7606 10.3259 19.8087 10.444 19.8087C10.5622 19.8087 10.6781 19.7606 10.7616 19.677C10.8452 19.5935 10.8932 19.4776 10.8932 19.3595C10.8932 19.2413 10.8452 19.1254 10.7616 19.0419C10.6781 18.9583 10.5622 18.9102 10.444 18.9102Z" fill="black"/>
</g>
<defs>
<clipPath id="clip0">
<rect x="0.156921" y="0.537186" width="23" height="23" fill="white"/>
</clipPath>
</defs>
</svg>
