<svg width="24" height="24" viewBox="0 0 24 24" fill="none" xmlns="http://www.w3.org/2000/svg">
<g clip-path="url(#clip0)">
<path d="M7.86011 9.93657C5.45546 11.8216 4.51104 15.0243 5.50815 17.9125C6.50526 20.8007 9.22443 22.7386 12.2799 22.7386C15.3353 22.7386 18.0545 20.8007 19.0516 17.9125C20.0487 15.0243 19.1043 11.8216 16.6996 9.93657L19.5275 5.22346C19.7492 4.85645 19.7432 4.39537 19.5121 4.03425L17.1227 0.278837C17.0506 0.173103 16.9324 0.108215 16.8045 0.104263H7.75529C7.62802 0.108627 7.51048 0.17349 7.43894 0.278837L5.04958 4.03349C4.8184 4.39461 4.8124 4.8557 5.03412 5.2227L7.86011 9.93657ZM18.6897 15.5633C18.6897 19.1033 15.8199 21.9731 12.2799 21.9731C8.73982 21.9731 5.87004 19.1033 5.87004 15.5633C5.87004 12.0232 8.73982 9.15344 12.2799 9.15344C15.8183 9.15739 18.6858 12.0249 18.6897 15.5633ZM13.8216 4.62885H10.901L8.45019 0.858361H16.1314L13.8216 4.62885ZM13.3597 5.38295L12.4043 6.94205L11.3912 5.38295H13.3597ZM18.8809 4.83434L16.0809 9.50183C14.9757 8.80436 13.6997 8.42486 12.393 8.405L16.8109 1.19318L18.8756 4.43807C18.9522 4.55851 18.9543 4.7119 18.8809 4.83434V4.83434ZM5.68416 4.43844L7.75793 1.17848L11.9681 7.65467L11.4828 8.44647C10.4145 8.56658 9.38739 8.92755 8.47884 9.50221L5.67888 4.83472C5.60625 4.71275 5.60829 4.56032 5.68416 4.44033V4.43844Z" fill="black"/>
<path d="M12.2799 20.4649C9.57406 20.4618 7.38135 18.2691 7.37823 15.5633C7.37823 15.355 7.20942 15.1862 7.00118 15.1862C6.79294 15.1862 6.62413 15.355 6.62413 15.5633C6.62766 18.6854 9.15775 21.2155 12.2799 21.219C12.4881 21.219 12.6569 21.0502 12.6569 20.842C12.6569 20.6337 12.4881 20.4649 12.2799 20.4649Z" fill="black"/>
<path d="M11.9028 10.2846C11.9028 10.4928 12.0716 10.6616 12.2799 10.6616C14.9857 10.6647 17.1784 12.8574 17.1815 15.5633C17.1815 15.7715 17.3503 15.9403 17.5586 15.9403C17.7668 15.9403 17.9356 15.7715 17.9356 15.5633C17.9321 12.4411 15.402 9.91105 12.2799 9.90752C12.0716 9.90752 11.9028 10.0763 11.9028 10.2846Z" fill="black"/>
<path d="M15.1526 13.9156L13.549 13.6712L12.8326 12.1457C12.7331 11.9305 12.5177 11.7928 12.2806 11.7928C12.0436 11.7928 11.8281 11.9305 11.7286 12.1457L11.0122 13.6712L9.40864 13.9156C9.17991 13.9499 8.99017 14.1104 8.91848 14.3303C8.84336 14.5524 8.89948 14.7979 9.06364 14.9653L10.2363 16.1647L9.95951 17.8591C9.91943 18.0945 10.0183 18.3319 10.2136 18.4692C10.4028 18.603 10.652 18.6166 10.8546 18.5042L12.2799 17.7177L13.7044 18.5042C13.9069 18.6171 14.1563 18.6035 14.3454 18.4692C14.5407 18.3319 14.6396 18.0945 14.5995 17.8591L14.3227 16.1647L15.4954 14.9653C15.6595 14.7979 15.7156 14.5524 15.6405 14.3303C15.5692 14.1111 15.3805 13.9507 15.1526 13.9156ZM13.7379 15.6839C13.5989 15.826 13.5359 16.0258 13.5683 16.222L13.8103 17.7008L12.5717 17.0175C12.39 16.917 12.1694 16.917 11.9877 17.0175L10.7494 17.7004L10.9911 16.2223C11.0239 16.0264 10.9613 15.8265 10.8226 15.6843L9.78305 14.6206L11.2015 14.4046C11.4029 14.373 11.5754 14.2433 11.6615 14.0585L12.2799 12.7441L12.8982 14.0588C12.9844 14.2439 13.1573 14.3737 13.359 14.405L14.7767 14.621L13.7379 15.6839Z" fill="black"/>
</g>
<defs>
<clipPath id="clip0">
<rect x="0.779877" y="0.104248" width="23" height="23" fill="white"/>
</clipPath>
</defs>
</svg>
