<svg width="24" height="22" viewBox="0 0 24 22" fill="none" xmlns="http://www.w3.org/2000/svg">
<path d="M23.5577 9.83486L21.6147 8.14142V2.52614C21.6147 2.16885 21.3119 1.87915 20.9383 1.87915H16.2613C15.8878 1.87915 15.5849 2.16881 15.5849 2.52614V2.88596L13.2384 0.840772C12.7854 0.445932 12.1024 0.445975 11.6496 0.840729L1.33026 9.8349C0.967473 10.1512 0.847577 10.6384 1.02484 11.0762C1.20214 11.514 1.63384 11.7969 2.12471 11.7969H3.77284V20.8083C3.77284 21.1656 4.07566 21.4553 4.44923 21.4553H10.1055C10.479 21.4553 10.7819 21.1657 10.7819 20.8083V15.3369H14.1061V20.8084C14.1061 21.1657 14.4089 21.4554 14.7825 21.4554H20.4385C20.8121 21.4554 21.1149 21.1657 21.1149 20.8084V11.7969H22.7634C23.2542 11.7969 23.6859 11.514 23.8632 11.0763C24.0405 10.6384 23.9206 10.1512 23.5577 9.83486ZM20.4385 10.503C20.065 10.503 19.7622 10.7926 19.7622 11.15V20.1614H15.459V14.6899C15.459 14.3326 15.1561 14.0429 14.7826 14.0429H10.1055C9.73195 14.0429 9.42909 14.3326 9.42909 14.6899V20.1614H5.12558V11.15C5.12558 10.7927 4.82276 10.503 4.44919 10.503H2.57222L12.4441 1.89892L15.8058 4.829C16.0039 5.00156 16.2897 5.04604 16.5347 4.94261C16.7797 4.83906 16.9377 4.60694 16.9377 4.35076V3.17312H20.262V8.42716C20.262 8.60922 20.3422 8.78277 20.4829 8.9054L22.3158 10.503H20.4385Z" fill="black"/>
</svg>
