<svg width="54" height="54" viewBox="0 0 54 54" fill="none" xmlns="http://www.w3.org/2000/svg">
<path d="M48.6876 26.7598C48.6876 39.0482 38.9758 48 26.6875 48C14.3992 48 5.8125 45.2883 5.8125 33C5.8125 20.7117 18.5242 6 30.8125 6C43.1008 6 48.6876 14.4715 48.6876 26.7598Z" fill="#201C48"/>
<path d="M53.3751 26.7017C53.3751 41.6646 41.5605 52.5816 26.5513 52.5816C18.9331 52.5816 12.5715 51.736 8.12259 49.0614C3.72973 46.4205 1.125 41.9463 1.125 34.4519C1.125 26.9791 4.99963 18.71 10.7974 12.2973C16.5975 5.88199 24.2355 1.41841 31.6745 1.41841C39.1802 1.41841 44.5759 3.99912 48.1081 8.39984C51.6544 12.8182 53.3751 19.1372 53.3751 26.7017Z" stroke="#201C48"/>
</svg>
